<?xml version="1.0" encoding="UTF-8"?>
<svg xmlns="http://www.w3.org/2000/svg" version="1.1" width="100" height="100" viewBox="0 0 100 100"><rect x="0" y="0" width="100" height="100" fill="#ffffff"/><g transform="scale(4.762)"><g transform="translate(0,0)"><path fill-rule="evenodd" d="M8 0L8 4L9 4L9 5L8 5L8 7L9 7L9 5L10 5L10 7L11 7L11 5L12 5L12 7L13 7L13 2L12 2L12 1L13 1L13 0L12 0L12 1L11 1L11 2L10 2L10 1L9 1L9 0ZM9 3L9 4L10 4L10 3ZM11 3L11 4L12 4L12 3ZM0 8L0 10L1 10L1 12L0 12L0 13L1 13L1 12L2 12L2 13L4 13L4 12L5 12L5 13L7 13L7 12L9 12L9 13L8 13L8 14L9 14L9 15L8 15L8 17L9 17L9 18L10 18L10 19L8 19L8 21L9 21L9 20L11 20L11 21L12 21L12 20L13 20L13 19L14 19L14 18L15 18L15 20L14 20L14 21L17 21L17 18L18 18L18 19L19 19L19 18L21 18L21 17L20 17L20 16L19 16L19 18L18 18L18 17L15 17L15 15L16 15L16 16L17 16L17 15L20 15L20 14L21 14L21 12L20 12L20 11L19 11L19 12L20 12L20 14L17 14L17 13L18 13L18 12L17 12L17 13L16 13L16 11L17 11L17 10L18 10L18 9L19 9L19 10L20 10L20 9L21 9L21 8L17 8L17 9L16 9L16 8L15 8L15 9L13 9L13 8L12 8L12 11L10 11L10 12L9 12L9 11L7 11L7 10L8 10L8 9L7 9L7 8L4 8L4 9L2 9L2 8ZM4 9L4 10L2 10L2 12L3 12L3 11L4 11L4 10L5 10L5 12L7 12L7 11L6 11L6 10L7 10L7 9L6 9L6 10L5 10L5 9ZM9 9L9 10L11 10L11 9ZM13 11L13 12L12 12L12 13L13 13L13 14L12 14L12 15L11 15L11 12L10 12L10 13L9 13L9 14L10 14L10 15L11 15L11 17L10 17L10 16L9 16L9 17L10 17L10 18L11 18L11 19L12 19L12 16L13 16L13 15L14 15L14 14L15 14L15 13L13 13L13 12L15 12L15 11ZM20 20L20 21L21 21L21 20ZM0 0L0 7L7 7L7 0ZM1 1L1 6L6 6L6 1ZM2 2L2 5L5 5L5 2ZM14 0L14 7L21 7L21 0ZM15 1L15 6L20 6L20 1ZM16 2L16 5L19 5L19 2ZM0 14L0 21L7 21L7 14ZM1 15L1 20L6 20L6 15ZM2 16L2 19L5 19L5 16Z" fill="#000000"/></g></g></svg>
