<?xml version="1.0" encoding="UTF-8"?>
<svg xmlns="http://www.w3.org/2000/svg" version="1.1" width="100" height="100" viewBox="0 0 100 100"><rect x="0" y="0" width="100" height="100" fill="#ffffff"/><g transform="scale(4.762)"><g transform="translate(0,0)"><path fill-rule="evenodd" d="M8 0L8 2L9 2L9 4L8 4L8 9L7 9L7 8L5 8L5 10L4 10L4 9L3 9L3 8L0 8L0 9L1 9L1 10L3 10L3 11L1 11L1 12L2 12L2 13L5 13L5 12L6 12L6 13L8 13L8 14L9 14L9 15L8 15L8 16L9 16L9 18L8 18L8 21L9 21L9 20L10 20L10 21L11 21L11 20L10 20L10 19L11 19L11 18L10 18L10 17L15 17L15 18L14 18L14 19L15 19L15 20L14 20L14 21L18 21L18 18L19 18L19 19L21 19L21 18L19 18L19 17L20 17L20 16L19 16L19 17L18 17L18 16L16 16L16 15L17 15L17 14L18 14L18 15L19 15L19 14L20 14L20 15L21 15L21 14L20 14L20 13L21 13L21 12L20 12L20 11L21 11L21 8L19 8L19 9L17 9L17 8L12 8L12 7L13 7L13 6L12 6L12 7L11 7L11 5L10 5L10 7L9 7L9 4L10 4L10 3L11 3L11 4L12 4L12 5L13 5L13 3L12 3L12 2L13 2L13 0ZM10 1L10 2L11 2L11 1ZM6 9L6 10L7 10L7 9ZM9 9L9 10L10 10L10 9ZM11 9L11 11L10 11L10 13L9 13L9 14L10 14L10 15L9 15L9 16L10 16L10 15L11 15L11 14L10 14L10 13L12 13L12 14L13 14L13 12L15 12L15 13L16 13L16 11L15 11L15 9ZM19 9L19 10L20 10L20 9ZM17 10L17 11L18 11L18 14L19 14L19 13L20 13L20 12L19 12L19 11L18 11L18 10ZM6 11L6 12L7 12L7 11ZM12 11L12 12L13 12L13 11ZM14 14L14 15L15 15L15 14ZM12 15L12 16L13 16L13 15ZM9 18L9 19L10 19L10 18ZM12 19L12 20L13 20L13 19ZM16 19L16 20L17 20L17 19ZM20 20L20 21L21 21L21 20ZM0 0L0 7L7 7L7 0ZM1 1L1 6L6 6L6 1ZM2 2L2 5L5 5L5 2ZM14 0L14 7L21 7L21 0ZM15 1L15 6L20 6L20 1ZM16 2L16 5L19 5L19 2ZM0 14L0 21L7 21L7 14ZM1 15L1 20L6 20L6 15ZM2 16L2 19L5 19L5 16Z" fill="#000000"/></g></g></svg>
