<svg width="279" height="142" viewBox="0 0 279 142" fill="none" xmlns="http://www.w3.org/2000/svg">
<path d="M84.45 46.6H112.6V54.6H84.45V46.6ZM93.5 56.6H103.5V81H93.5V56.6ZM115.903 43.85H125.153V51.05H115.903V43.85ZM115.903 55.5H125.153V81H115.903V55.5ZM147.394 62.35C146.561 62.2167 145.361 62.15 143.794 62.15C142.761 62.15 142.027 62.2167 141.594 62.35V55.1C143.961 55.1333 146.411 55.4333 148.944 56V62.5L147.394 62.35ZM141.244 81.4C138.644 81.4 136.577 81.0833 135.044 80.45C133.511 79.8167 132.377 78.8833 131.644 77.65C130.977 76.5833 130.544 75.3333 130.344 73.9C130.177 72.4667 130.094 70.6 130.094 68.3C130.094 66.2 130.177 64.45 130.344 63.05C130.511 61.65 130.861 60.4167 131.394 59.35C132.027 58.1167 132.977 57.1667 134.244 56.5C135.544 55.8 137.294 55.3667 139.494 55.2V68.25C139.494 69.7167 139.527 70.8167 139.594 71.55C139.694 72.2833 139.877 72.85 140.144 73.25C140.444 73.65 140.861 73.9333 141.394 74.1C141.961 74.2667 142.761 74.35 143.794 74.35C145.561 74.35 146.777 74.3 147.444 74.2L149.144 74V80.5C146.677 81.1 144.044 81.4 141.244 81.4ZM154.086 43.85H163.336V81H154.086V43.85ZM165.436 73.7V63.1L169.786 55.5H179.536L172.036 67.6L179.686 81H169.586L165.436 73.7ZM192.957 65.75H196.457C196.457 63.8833 196.273 62.6833 195.907 62.15C195.707 61.85 195.44 61.6667 195.107 61.6C194.773 61.5 194.29 61.45 193.657 61.45H192.957V55.1H193.657C196.523 55.1 198.723 55.3333 200.257 55.8C201.823 56.2667 202.973 57.0333 203.707 58.1C204.373 59.0333 204.773 60.2333 204.907 61.7C205.073 63.1667 205.157 65.3667 205.157 68.3V70.3H192.957V65.75ZM194.657 81.4C191.59 81.4 189.173 81.15 187.407 80.65C185.673 80.1167 184.373 79.2833 183.507 78.15C182.74 77.15 182.24 75.9167 182.007 74.45C181.773 72.95 181.657 70.9 181.657 68.3C181.657 65.9 181.74 64 181.907 62.6C182.073 61.1667 182.423 59.95 182.957 58.95C183.557 57.85 184.473 57 185.707 56.4C186.973 55.7667 188.69 55.3667 190.857 55.2V70.3C190.857 71.4333 190.907 72.25 191.007 72.75C191.107 73.2167 191.34 73.5667 191.707 73.8C192.107 74.0667 192.723 74.2167 193.557 74.25C194.623 74.3167 195.757 74.35 196.957 74.35C199.09 74.35 200.64 74.3 201.607 74.2L204.157 74V80.45C202.823 80.85 200.99 81.1167 198.657 81.25C197.523 81.35 196.19 81.4 194.657 81.4ZM208.045 55.5H212.745V48.1H221.995V55.5H227.595V62.55H208.045V55.5ZM212.745 64.55H221.995V81H212.745V64.55ZM229.382 55.5H234.082V48.1H243.332V55.5H248.932V62.55H229.382V55.5ZM234.082 64.55H243.332V81H234.082V64.55ZM266.676 68.3C266.676 66.6 266.66 65.4667 266.626 64.9C266.593 64.1 266.493 63.5 266.326 63.1C266.16 62.6667 265.893 62.4 265.526 62.3C265.126 62.2 264.576 62.15 263.876 62.15H263.176V55.1H263.876C266.776 55.1 269.043 55.3333 270.676 55.8C272.31 56.2333 273.526 56.9667 274.326 58C275.06 58.9333 275.526 60.1833 275.726 61.75C275.96 63.2833 276.076 65.4667 276.076 68.3C276.076 70.9333 275.993 72.9833 275.826 74.45C275.693 75.8833 275.343 77.0667 274.776 78C274.143 79.0333 273.193 79.8167 271.926 80.35C270.66 80.85 268.91 81.1667 266.676 81.3V68.3ZM263.876 81.4C260.976 81.4 258.71 81.1833 257.076 80.75C255.443 80.3167 254.226 79.5833 253.426 78.55C252.693 77.6167 252.21 76.3833 251.976 74.85C251.776 73.3167 251.676 71.1333 251.676 68.3C251.676 65.7 251.76 63.6667 251.926 62.2C252.093 60.7333 252.46 59.5167 253.026 58.55C253.626 57.4833 254.56 56.7 255.826 56.2C257.093 55.6667 258.843 55.3333 261.076 55.2V68.3C261.076 70 261.093 71.1167 261.126 71.65C261.16 72.45 261.26 73.05 261.426 73.45C261.593 73.85 261.876 74.1 262.276 74.2C262.61 74.3 263.143 74.35 263.876 74.35H264.576V81.4H263.876Z" fill="#333333"/>
<path d="M0 68L31 0L34.5 4.53982H40.5L45 9.31858H50.5L53.5 13.5H59.25L63 17.9204H68.5L72.5 22.2212H77.5L81.5 27H87.5L70.5 68L87.5 108.5L31 141.5L0 68Z" fill="#FAC300"/>
<line x1="-1.03163e-10" y1="68.5" x2="70" y2="68.5" stroke="#333333" stroke-opacity="0.33" stroke-dasharray="10 10"/>
<path d="M44.8148 41.296C43.7686 44.5158 42.4414 46.7296 40.8332 47.9376C39.2249 49.1456 37.2518 49.3697 34.9138 48.6101C32.6055 47.86 31.1444 46.5419 30.5306 44.6558C29.9199 42.7597 30.0889 40.2845 31.0375 37.2302L32.2301 33.5598C33.2634 30.3797 34.5809 28.1955 36.1827 27.0074C37.7845 25.8192 39.7594 25.6066 42.1073 26.3694C44.4354 27.1259 45.9063 28.4307 46.5199 30.284C47.1367 32.1273 46.9546 34.6092 45.9736 37.7296L44.8148 41.296ZM43.2872 36.6431C44.0437 34.315 44.2672 32.5147 43.9577 31.2423C43.6515 29.9599 42.7901 29.0885 41.3734 28.6282C39.9666 28.1711 38.7691 28.368 37.7807 29.2188C36.7923 30.0696 35.9309 31.5914 35.1965 33.7843L33.7673 38.1829C33.0077 40.521 32.7828 42.3591 33.0927 43.6975C33.4158 45.0292 34.2658 45.9187 35.6429 46.3662C37.0001 46.8071 38.1762 46.6088 39.1713 45.7711C40.1763 44.9367 41.0606 43.3949 41.8242 41.1458L43.2872 36.6431Z" fill="#333333" fill-opacity="0.9"/>
<path d="M43.7571 107.551L40.9231 108.196L36.6527 89.4092L31.4441 92.7884L30.8622 90.2287L38.2482 85.3611L38.6901 85.2607L43.7571 107.551Z" fill="#333333" fill-opacity="0.9"/>
<path d="M58.7251 45.9179C57.9404 46.3169 57.1039 46.5506 56.2155 46.6191C55.3361 46.6914 54.4649 46.5444 53.602 46.178C52.4693 45.6973 51.5988 44.9989 50.9903 44.0829C50.3909 43.1707 50.0757 42.1138 50.0446 40.9124C50.0173 39.7021 50.2631 38.4856 50.7821 37.263C51.3392 35.9506 52.0881 34.8734 53.029 34.0316C53.9788 33.1935 55.0305 32.6904 56.184 32.5223C57.3375 32.3541 58.5255 32.5295 59.748 33.0485C61.6897 33.8727 62.9088 35.2495 63.4053 37.1789C63.9147 39.1031 63.637 41.3193 62.5724 43.8273L62.2634 44.5554C60.6417 48.3759 58.7018 50.8465 56.4437 51.9674C54.1894 53.0793 51.5291 53.0109 48.4626 51.7623L47.9772 51.5563L48.8701 49.4528L49.396 49.676C51.4698 50.5138 53.2789 50.6505 54.8234 50.0861C56.3717 49.5127 57.6723 48.1233 58.7251 45.9179ZM54.8822 44.2867C55.7182 44.6416 56.5955 44.7116 57.5142 44.4969C58.4418 44.2859 59.2277 43.8716 59.8719 43.2538L60.2954 42.256C60.9899 40.62 61.1995 39.1388 60.9244 37.8126C60.6492 36.4864 59.9678 35.5924 58.8801 35.1307C57.7834 34.6652 56.7231 34.7138 55.6992 35.2764C54.6791 35.83 53.8772 36.7945 53.2934 38.1699C52.7248 39.5093 52.5746 40.7504 52.8427 41.8933C53.1236 43.031 53.8035 43.8288 54.8822 44.2867Z" fill="#333333" fill-opacity="0.9"/>
<path d="M60.8993 93.9498C61.5904 97.0474 61.575 99.4672 60.853 101.209C60.131 102.951 58.6454 104.073 56.396 104.575C54.1752 105.07 52.3673 104.703 50.9723 103.474C49.5752 102.235 48.5312 100.156 47.8402 97.2386L47.0523 93.7072C46.3697 90.6477 46.3915 88.2565 47.1178 86.5335C47.844 84.8106 49.3366 83.6972 51.5955 83.1932C53.8353 82.6934 55.6448 83.0452 57.0239 84.2484C58.4008 85.442 59.4375 87.532 60.1338 90.5185L60.8993 93.9498ZM57.4474 90.9227C56.9476 88.6829 56.2695 87.1232 55.4129 86.2437C54.5541 85.3547 53.4433 85.0622 52.0803 85.3663C50.7269 85.6683 49.8542 86.3983 49.4622 87.5564C49.0702 88.7144 49.1007 90.3536 49.5537 92.4738L50.4979 96.7057C50.9997 98.955 51.6949 100.546 52.5833 101.478C53.4791 102.399 54.5895 102.712 55.9143 102.416C57.2201 102.125 58.0748 101.404 58.4785 100.253C58.8917 99.1004 58.8701 97.4342 58.4139 95.2547L57.4474 90.9227Z" fill="#333333" fill-opacity="0.9"/>
</svg>
