<?xml version="1.0" encoding="UTF-8"?>
<svg xmlns="http://www.w3.org/2000/svg" version="1.1" width="100" height="100" viewBox="0 0 100 100"><rect x="0" y="0" width="100" height="100" fill="#ffffff"/><g transform="scale(3.448)"><g transform="translate(0,0)"><path fill-rule="evenodd" d="M9 0L9 1L8 1L8 2L9 2L9 3L8 3L8 4L10 4L10 7L11 7L11 4L12 4L12 5L13 5L13 6L12 6L12 9L16 9L16 10L14 10L14 12L12 12L12 11L13 11L13 10L11 10L11 11L10 11L10 9L11 9L11 8L6 8L6 9L5 9L5 8L0 8L0 9L5 9L5 11L7 11L7 10L8 10L8 11L9 11L9 13L10 13L10 14L9 14L9 15L10 15L10 16L8 16L8 15L7 15L7 14L4 14L4 12L1 12L1 13L0 13L0 14L4 14L4 15L1 15L1 17L0 17L0 21L1 21L1 18L2 18L2 16L4 16L4 17L5 17L5 18L6 18L6 19L5 19L5 21L8 21L8 23L9 23L9 24L8 24L8 29L9 29L9 27L10 27L10 26L12 26L12 27L13 27L13 26L14 26L14 28L13 28L13 29L18 29L18 28L16 28L16 26L17 26L17 27L18 27L18 26L19 26L19 24L20 24L20 25L21 25L21 26L20 26L20 28L19 28L19 29L20 29L20 28L21 28L21 29L23 29L23 28L26 28L26 29L27 29L27 28L28 28L28 26L29 26L29 23L28 23L28 25L27 25L27 24L26 24L26 23L27 23L27 22L29 22L29 20L28 20L28 19L27 19L27 16L28 16L28 15L27 15L27 12L28 12L28 11L27 11L27 12L25 12L25 9L26 9L26 8L25 8L25 9L24 9L24 8L23 8L23 9L22 9L22 8L21 8L21 3L20 3L20 2L21 2L21 0L19 0L19 1L18 1L18 0L16 0L16 1L14 1L14 3L13 3L13 4L12 4L12 2L13 2L13 1L11 1L11 2L10 2L10 0ZM19 1L19 2L20 2L20 1ZM15 2L15 5L17 5L17 7L16 7L16 6L15 6L15 7L14 7L14 6L13 6L13 8L16 8L16 9L17 9L17 8L18 8L18 6L19 6L19 9L21 9L21 10L18 10L18 11L16 11L16 12L15 12L15 13L14 13L14 14L16 14L16 15L17 15L17 16L15 16L15 15L13 15L13 16L11 16L11 17L13 17L13 18L10 18L10 19L8 19L8 18L9 18L9 17L6 17L6 16L7 16L7 15L6 15L6 16L5 16L5 15L4 15L4 16L5 16L5 17L6 17L6 18L7 18L7 19L6 19L6 20L9 20L9 21L10 21L10 22L11 22L11 23L10 23L10 25L12 25L12 26L13 26L13 25L12 25L12 24L14 24L14 26L16 26L16 25L15 25L15 24L14 24L14 20L16 20L16 21L15 21L15 22L16 22L16 21L17 21L17 22L18 22L18 21L20 21L20 18L21 18L21 20L22 20L22 18L21 18L21 17L26 17L26 16L27 16L27 15L26 15L26 13L25 13L25 12L23 12L23 10L22 10L22 9L21 9L21 8L20 8L20 5L19 5L19 4L20 4L20 3L18 3L18 2L17 2L17 3L16 3L16 2ZM10 3L10 4L11 4L11 3ZM17 3L17 4L18 4L18 3ZM13 4L13 5L14 5L14 4ZM8 5L8 7L9 7L9 5ZM27 8L27 9L28 9L28 10L29 10L29 9L28 9L28 8ZM6 9L6 10L7 10L7 9ZM8 9L8 10L9 10L9 9ZM0 10L0 11L2 11L2 10ZM3 10L3 11L4 11L4 10ZM20 11L20 13L19 13L19 14L17 14L17 13L18 13L18 12L17 12L17 13L16 13L16 14L17 14L17 15L19 15L19 18L17 18L17 17L18 17L18 16L17 16L17 17L16 17L16 18L15 18L15 16L13 16L13 17L14 17L14 19L16 19L16 18L17 18L17 19L18 19L18 20L17 20L17 21L18 21L18 20L19 20L19 18L20 18L20 16L22 16L22 15L21 15L21 12L22 12L22 11ZM5 12L5 13L7 13L7 12ZM10 12L10 13L11 13L11 15L12 15L12 13L11 13L11 12ZM22 13L22 14L23 14L23 15L24 15L24 14L25 14L25 13ZM28 13L28 14L29 14L29 13ZM19 14L19 15L20 15L20 14ZM28 17L28 18L29 18L29 17ZM24 18L24 19L23 19L23 20L24 20L24 19L25 19L25 21L26 21L26 20L27 20L27 19L25 19L25 18ZM3 19L3 20L2 20L2 21L4 21L4 19ZM10 19L10 20L13 20L13 19ZM11 21L11 22L12 22L12 21ZM21 21L21 24L24 24L24 21ZM22 22L22 23L23 23L23 22ZM17 23L17 24L19 24L19 23ZM22 25L22 26L25 26L25 27L26 27L26 28L27 28L27 25L26 25L26 26L25 26L25 25ZM21 27L21 28L22 28L22 27ZM10 28L10 29L11 29L11 28ZM0 0L0 7L7 7L7 0ZM1 1L1 6L6 6L6 1ZM2 2L2 5L5 5L5 2ZM22 0L22 7L29 7L29 0ZM23 1L23 6L28 6L28 1ZM24 2L24 5L27 5L27 2ZM0 22L0 29L7 29L7 22ZM1 23L1 28L6 28L6 23ZM2 24L2 27L5 27L5 24Z" fill="#000000"/></g></g></svg>
